<?xml version="1.0" encoding="UTF-8" standalone="no"?>
<svg
  width="174.77"
  height="218.278"
  viewBox="0 0 174.77 218.278"
  version="1.1"
  id="svg3"
  sodipodi:docname="Icon.svg"
  inkscape:version="1.4 (86a8ad7, 2024-10-11)"
  xml:space="preserve"
  xmlns:inkscape="http://www.inkscape.org/namespaces/inkscape"
  xmlns:sodipodi="http://sodipodi.sourceforge.net/DTD/sodipodi-0.dtd"
  xmlns="http://www.w3.org/2000/svg"
  xmlns:svg="http://www.w3.org/2000/svg"><defs
     id="defs3" /><sodipodi:namedview
     id="namedview3"
     pagecolor="#505050"
     bordercolor="#eeeeee"
     borderopacity="1"
     inkscape:showpageshadow="0"
     inkscape:pageopacity="0"
     inkscape:pagecheckerboard="0"
     inkscape:deskcolor="#505050"
     inkscape:zoom="3.0072202"
     inkscape:cx="110.89976"
     inkscape:cy="118.21549"
     inkscape:window-width="1920"
     inkscape:window-height="1051"
     inkscape:window-x="-9"
     inkscape:window-y="-9"
     inkscape:window-maximized="1"
     inkscape:current-layer="svg3" /><path
     d="m 37.048828,0.00585938 c -5.115537,-0.02107501 -10.217875,0.00193037 -14.921875,0.17773437 -6.9943,0.5701 -12.028725,2.10836885 -16.8281249,7.73046875 -2.7035,3.1095005 -4.40154685,6.9632405 -4.87304685,11.0566405 -0.3931,3.303 -0.31200625,7.824591 -0.31640625,11.212891 l -0.001953,16.185547 0.005859,53.537109 0.007813,65.03516 -0.007813,19.84961 c -0.0161,8.952 -1.22948755,17.2535 4.69531245,24.8125 8.3273003,10.623 20.4984183,8.501 32.8867183,8.5 l 31.984375,-0.006 h 53.970703 c 9.32,0 20.11911,0.27038 29.28711,-0.0977 6.731,-0.458 11.77056,-2.33884 16.35156,-7.58984 2.877,-3.289 4.67077,-7.38352 5.13477,-11.72852 0.30501,-2.646 0.22337,-6.17053 0.23437,-8.89453 l 0.0566,-14.0918 0.0469,-53.74804 -0.002,-66.689458 c 0.03,-7.919899 -0.004,-15.840265 -0.0996,-23.759765 -0.092,-10.0045 1.00864,-18.566659 -7.44336,-25.8808595 -2.622,-2.2692 -6.48619,-4.4901375 -9.99219,-5.0234375 -6.169,-0.7294 -12.90049,-0.50966562 -19.14649,-0.50976563 l -30.68359,0.0078125 H 52.050781 c -4.75715,-2e-4 -9.886415,-0.0648575 -15.001953,-0.08593749 z M 22.179687,21.541016 c 4.391071,0.113598 8.929445,0.16674 13.501954,0.201171 13.53624,0.0763 27.651817,-0.148039 40.673828,-0.169921 6.2e-5,0.01687 -6.2e-5,0.03391 0,0.05078 2.515508,-0.01403 5.184764,-0.04278 7.640625,-0.04687 0.1221,32.915943 -0.327867,66.162005 0.05664,99.033208 -2.77158,-1.30511 -8.466183,-4.93787 -11.3125,-6.64063 -4.295094,-2.76315 -15.730879,-9.79676 -20.09375,-11.75781 -8.849888,6.03158 -21.045162,12.76886 -30.470703,18.54101 z"
     style="fill:#5f60ff"
     id="path7" /><path
     d="m 22.180237,21.541016 -0.0045,99.210924 c 9.425541,-5.77215 21.62161,-12.50865 30.471498,-18.54023 4.362871,1.96105 15.797865,8.99293 20.092959,11.75608 2.846317,1.70276 8.540738,5.33743 11.312318,6.64253 -0.384507,-32.871198 0.06638,-66.117958 -0.05572,-99.033901 -19.895478,0.03319 -42.031696,0.476443 -61.816603,-0.0354 z"
     style="fill:#18181b;fill-opacity:1;stroke-width:1.13696"
     id="path2" /></svg>